<?xml version="1.0" encoding="utf-8"?>
<!-- Generator: Adobe Illustrator 28.1.0, SVG Export Plug-In . SVG Version: 6.00 Build 0)  -->
<svg version="1.1" id="Layer_1" xmlns="http://www.w3.org/2000/svg" xmlns:xlink="http://www.w3.org/1999/xlink" x="0px" y="0px"
	 viewBox="0 0 110 135" style="enable-background:new 0 0 110 135;" xml:space="preserve">
<style type="text/css">
	.st0{fill:#ED2121;}
</style>
<g>
	<path class="st0" d="M62.4,47.4c-0.7,0-1.3-0.3-1.7-0.9l-7.2-11.5c-0.3-0.4-0.4-1-0.2-1.5c0.1-0.5,0.4-1,0.9-1.2l11.5-7.2
		c0.9-0.6,2.2-0.3,2.8,0.6c0.6,0.9,0.3,2.2-0.6,2.8l-9.8,6.1l6.1,9.8c0.6,0.9,0.3,2.2-0.6,2.8C63.1,47.3,62.7,47.4,62.4,47.4
		L62.4,47.4z"/>
	<path class="st0" d="M55,95.4c-0.5,0-1.1,0-1.6,0c-8.5-0.4-16.2-4.1-21.9-10.4c-5.7-6.3-8.6-14.4-8.2-22.9c0.1-1.1,1-2,2.1-1.9
		c1.1,0.1,1.9,1,1.9,2.1c-0.4,7.4,2.2,14.5,7.1,20c5,5.5,11.8,8.7,19.2,9.1c7.4,0.4,14.5-2.2,20-7.1c5.5-5,8.7-11.8,9.1-19.2
		c0.4-7.4-2.2-14.5-7.1-20c-5-5.5-11.8-8.7-19.2-9.1c-1.1-0.1-1.9-1-1.9-2.1c0.1-1.1,1-1.9,2.1-1.9c8.5,0.4,16.2,4.1,21.9,10.4
		c5.7,6.3,8.6,14.4,8.2,22.9c-0.4,8.5-4.1,16.2-10.4,21.9C70.4,92.5,62.9,95.3,55,95.4L55,95.4z"/>
</g>
</svg>
